<svg width="84" height="152" viewBox="0 0 84 152" fill="none" xmlns="http://www.w3.org/2000/svg">
<rect width="84" height="152" rx="5" fill="#282C33"/>
<mask id="path-2-inside-1_64_1297" fill="white">
<path fill-rule="evenodd" clip-rule="evenodd" d="M16 29H29H42V42H29V55H42V68H29H16V55V42V29Z"/>
</mask>
<path d="M16 29V28H15V29H16ZM42 29H43V28H42V29ZM42 42V43H43V42H42ZM29 42V41H28V42H29ZM29 55H28V56H29V55ZM42 55H43V54H42V55ZM42 68V69H43V68H42ZM16 68H15V69H16V68ZM29 28H16V30H29V28ZM42 28H29V30H42V28ZM43 42V29H41V42H43ZM29 43H42V41H29V43ZM30 55V42H28V55H30ZM29 56H42V54H29V56ZM41 55V68H43V55H41ZM42 67H29V69H42V67ZM16 69H29V67H16V69ZM15 55V68H17V55H15ZM15 42V55H17V42H15ZM15 29V42H17V29H15Z" fill="#C778DD" mask="url(#path-2-inside-1_64_1297)"/>
<mask id="path-4-outside-2_64_1297" maskUnits="userSpaceOnUse" x="41" y="15" width="28" height="41" fill="black">
<rect fill="white" x="41" y="15" width="28" height="41"/>
<path fill-rule="evenodd" clip-rule="evenodd" d="M42 16H55H68V29V42V55H55H42V42H55V29H42V16Z"/>
</mask>
<path d="M42 16V15H41V16H42ZM68 16H69V15H68V16ZM68 55V56H69V55H68ZM42 55H41V56H42V55ZM42 42V41H41V42H42ZM55 42V43H56V42H55ZM55 29H56V28H55V29ZM42 29H41V30H42V29ZM55 15H42V17H55V15ZM68 15H55V17H68V15ZM69 29V16H67V29H69ZM69 42V29H67V42H69ZM69 55V42H67V55H69ZM55 56H68V54H55V56ZM55 54H42V56H55V54ZM43 55V42H41V55H43ZM42 43H55V41H42V43ZM54 29V42H56V29H54ZM42 30H55V28H42V30ZM41 16V29H43V16H41Z" fill="#C778DD" mask="url(#path-4-outside-2_64_1297)"/>
<path fill-rule="evenodd" clip-rule="evenodd" d="M55 84H42V97H29H16V110V123V136H29H42V123H55H68V110V97V84H55ZM29 123H42V110H55V97H42V110H29V123Z" fill="white"/>
</svg>
